<svg width="64" height="64" viewBox="0 0 64 64" fill="none" xmlns="http://www.w3.org/2000/svg">
<g clip-path="url(#clip0_24_4)">
<path d="M0.5 32C0.5 14.603 14.603 0.5 32 0.5C49.397 0.5 63.5 14.603 63.5 32C63.5 49.397 49.397 63.5 32 63.5C14.603 63.5 0.5 49.397 0.5 32Z" fill="#3B82F6" stroke="white"/>
<path d="M35.1377 40.8037C34.9424 40.9421 34.5924 41.1333 34.0879 41.3774C33.5915 41.6134 32.9038 41.825 32.0249 42.0122C31.146 42.1994 30.0433 42.293 28.7168 42.293C26.9346 42.293 25.3965 42 24.1025 41.4141C22.8167 40.82 21.828 39.8638 21.1362 38.5454C20.4445 37.2189 20.0986 35.4652 20.0986 33.2842C20.0986 30.3789 20.8433 28.141 22.3325 26.5703C23.8218 24.9915 25.897 24.2021 28.5581 24.2021C29.8276 24.2021 30.8408 24.3242 31.5977 24.5684C32.3545 24.8125 32.9282 25.0973 33.3188 25.4229C33.7095 25.7484 33.9821 26.0332 34.1367 26.2773C34.1937 26.3669 34.2344 26.4482 34.2588 26.5215C34.2832 26.5866 34.2995 26.6924 34.3076 26.8389C34.332 27.0342 34.3361 27.319 34.3198 27.6934C34.3117 28.0677 34.2832 28.3973 34.2344 28.6821C34.2018 28.8612 34.1489 28.9792 34.0757 29.0361C34.0431 29.0687 33.9862 29.0972 33.9048 29.1216C33.8234 29.146 33.7013 29.1582 33.5386 29.1582C33.2782 29.1582 32.973 29.1501 32.623 29.1338C32.2812 29.1094 32.029 29.085 31.8662 29.0605C31.6709 29.028 31.5285 28.9832 31.439 28.9263C31.3576 28.8612 31.2681 28.7635 31.1704 28.6333C31.0728 28.5031 30.9385 28.3525 30.7676 28.1816C30.5967 28.0026 30.3363 27.8439 29.9863 27.7056C29.6445 27.5672 29.1685 27.498 28.5581 27.498C27.2153 27.498 26.1615 27.9863 25.3965 28.9629C24.6315 29.9313 24.249 31.327 24.249 33.1499C24.249 35.0623 24.6437 36.515 25.4331 37.5078C26.2306 38.5007 27.374 38.9971 28.8633 38.9971C29.612 38.9971 30.1613 38.9442 30.5112 38.8384C30.8693 38.7244 31.0972 38.639 31.1948 38.582V34.7856C31.1948 34.5496 31.2355 34.3706 31.3169 34.2485C31.6831 33.7114 32.1958 33.1458 32.855 32.5518C32.9771 32.4541 33.0828 32.4053 33.1724 32.4053C33.27 32.4053 33.3717 32.4541 33.4775 32.5518C33.8356 32.861 34.1367 33.158 34.3809 33.4429C34.625 33.7196 34.8366 33.9881 35.0156 34.2485C35.097 34.3787 35.1377 34.5578 35.1377 34.7856V40.8037ZM49.6274 26.4482C49.6274 26.2122 49.6681 26.0332 49.7495 25.9111C50.1157 25.374 50.6284 24.8084 51.2876 24.2144C51.4097 24.1167 51.5155 24.0679 51.605 24.0679C51.7026 24.0679 51.8044 24.1167 51.9102 24.2144C52.2682 24.5236 52.5693 24.8206 52.8135 25.1055C53.0576 25.3822 53.2692 25.6507 53.4482 25.9111C53.5296 26.0413 53.5703 26.2204 53.5703 26.4482V41.353C53.5703 41.5972 53.5174 41.7681 53.4116 41.8657C53.314 41.9552 53.1431 42 52.8989 42H50.2988C50.0547 42 49.8797 41.9552 49.7739 41.8657C49.6763 41.7681 49.6274 41.5972 49.6274 41.353V34.8711H42.3765V41.353C42.3765 41.5972 42.3236 41.7681 42.2178 41.8657C42.1201 41.9552 41.9492 42 41.7051 42H39.105C38.8608 42 38.6859 41.9552 38.5801 41.8657C38.4824 41.7681 38.4336 41.5972 38.4336 41.353V25.1421C38.4336 24.8979 38.4824 24.7311 38.5801 24.6416C38.6859 24.5439 38.8608 24.4951 39.105 24.4951H41.7051C41.9492 24.4951 42.1201 24.5439 42.2178 24.6416C42.3236 24.7311 42.3765 24.8979 42.3765 25.1421V31.4775H49.6274V26.4482Z" fill="white"/>
<path d="M6 33C6 30.2386 8.23858 28 11 28C13.7614 28 16 30.2386 16 33C16 35.7614 13.7614 38 11 38C8.23858 38 6 35.7614 6 33Z" fill="white"/>
</g>
<defs>
<clipPath id="clip0_24_4">
<rect width="64" height="64" fill="white"/>
</clipPath>
</defs>
</svg>
